<?xml version="1.0" encoding="UTF-8"?>
<svg id="_图层_1" data-name="图层_1" xmlns="http://www.w3.org/2000/svg" xmlns:xlink="http://www.w3.org/1999/xlink" version="1.1" viewBox="0 0 128 128">
  <!-- Generator: Adobe Illustrator 29.8.2, SVG Export Plug-In . SVG Version: 2.1.1 Build 3)  -->
  <defs>
    <style>
      .st0 {
        fill: url(#_未命名的渐变_2);
      }

      .st1 {
        fill: #fff;
        fill-rule: evenodd;
      }

      .st2 {
        fill-opacity: .05;
      }

      .st3 {
        fill: url(#_未命名的渐变);
      }

      .st4 {
        fill: none;
        stroke: #fff;
        stroke-opacity: .3;
        stroke-width: 2px;
      }
    </style>
    <linearGradient id="_未命名的渐变" data-name="未命名的渐变" x1="64" y1="114" x2="64" y2="18" gradientTransform="translate(0 130) scale(1 -1)" gradientUnits="userSpaceOnUse">
      <stop offset="0" stop-color="#3370ff"/>
      <stop offset="1" stop-color="#2955cc"/>
    </linearGradient>
    <linearGradient id="_未命名的渐变_2" data-name="未命名的渐变 2" x1="20" y1="47" x2="108" y2="47" gradientTransform="translate(0 130) scale(1 -1)" gradientUnits="userSpaceOnUse">
      <stop offset="0" stop-color="#00d6b9"/>
      <stop offset="1" stop-color="#00b39e"/>
    </linearGradient>
  </defs>
  <rect class="st3" x="20" y="28" width="88" height="84" rx="18" ry="18"/>
  <path class="st2" d="M28,40h72v40H28v-40Z"/>
  <path class="st1" d="M64,20c3.31,0,6,2.69,6,6v26.5l8.25-8.25c2.07-2.07,5.43-2.07,7.5,0s2.07,5.43,0,7.5l-18,18c-.99.99-2.34,1.55-3.75,1.55s-2.76-.56-3.75-1.55l-18-18c-2.07-2.07-2.07-5.43,0-7.5s5.43-2.07,7.5,0l8.25,8.25v-26.5c0-3.31,2.69-6,6-6Z"/>
  <path class="st0" d="M20,72c0-9.94,8.06-18,18-18h5.23c4.3,0,8.48,1.45,11.82,4.12l3.55,2.84c3.11,2.49,7.69,2.49,10.8,0l3.55-2.84c3.34-2.67,7.52-4.12,11.82-4.12h5.23c9.94,0,18,8.06,18,18v22c0,9.94-8.06,18-18,18h-52c-9.94,0-18-8.06-18-18v-22Z"/>
  <path class="st4" d="M21,72c0-9,7.5-17,17-17h5.23c4.07,0,7.97,1.4,11.17,4l3.6,2.8c3.4,2.8,8.6,2.8,12,0l3.6-2.8c3.2-2.6,7.1-4,11.17-4h5.23c9.5,0,17,8,17,17v22c0,9-7.5,17-17,17h-52c-9.5,0-17-8-17-17v-22Z"/>
</svg>